<?xml version="1.0" encoding="UTF-8" standalone="no"?>
<svg
   xmlns:dc="http://purl.org/dc/elements/1.1/"
   xmlns:cc="http://creativecommons.org/ns#"
   xmlns:rdf="http://www.w3.org/1999/02/22-rdf-syntax-ns#"
   xmlns:svg="http://www.w3.org/2000/svg"
   xmlns="http://www.w3.org/2000/svg"
   id="svg8"
   version="1.1"
   viewBox="0 0 75.317886 76.162071"
   height="76.162071mm"
   width="75.317886mm">
  <defs
     id="defs2" />
  <metadata
     id="metadata5">
    <rdf:RDF>
      <cc:Work
         rdf:about="">
        <dc:format>image/svg+xml</dc:format>
        <dc:type
           rdf:resource="http://purl.org/dc/dcmitype/StillImage" />
        <dc:title></dc:title>
      </cc:Work>
    </rdf:RDF>
  </metadata>
  <g
     transform="translate(-65.150587,-79.380274)"
     id="layer1">
    <g
       id="g4534">
      <path
         id="path819"
         d="M 138.87627,89.706716 102.80953,80.04173 66.742794,89.706716 c 0,0 -10.073158,52.765614 36.066736,65.174174 46.1399,-12.40856 36.06674,-65.174174 36.06674,-65.174174 z"
         style="fill:none;stroke:#000000;stroke-width:1.32291663;stroke-linecap:round;stroke-linejoin:round;stroke-miterlimit:4;stroke-dasharray:none;stroke-opacity:1" />
      <path
         style="fill:none;stroke:#000000;stroke-width:1.32291663;stroke-linecap:round;stroke-linejoin:round;stroke-miterlimit:4;stroke-dasharray:none;stroke-opacity:1"
         d="m 131.22419,95.594084 -28.41466,-7.614826 -28.41466,7.614826 c 0,0 -7.935993,41.572846 28.41466,51.349276 36.35066,-9.77643 28.41466,-51.349276 28.41466,-51.349276 z"
         id="path821" />
      <path
         style="opacity:1;fill:none;fill-opacity:1;stroke:#000000;stroke-width:1.32291651;stroke-linecap:round;stroke-linejoin:round;stroke-miterlimit:4;stroke-dasharray:none;stroke-dashoffset:100.00010681;stroke-opacity:1"
         d="m 121.30848,102.21569 c -0.32985,-10e-4 -0.65996,0.12685 -0.91356,0.38388 l -20.17909,20.45169 -14.925978,-14.82532 c -0.403584,-0.40087 -1.053359,-0.40087 -1.456942,0 l -3.625918,3.60153 c -0.403585,0.40087 -0.403585,1.04627 0,1.44714 l 19.265796,19.13622 c 0.403582,0.40087 1.053362,0.40087 1.456942,0 l 3.62592,-3.60153 c 0.09,-0.0894 0.15861,-0.19165 0.20847,-0.3 l 20.56478,-20.84247 c 0.50721,-0.51407 0.50993,-1.34444 0.006,-1.86182 l -3.11541,-3.19959 c -0.25189,-0.2587 -0.58131,-0.38865 -0.91116,-0.38973 z"
         id="rect823" />
    </g>
  </g>
</svg>
